<?xml version="1.0" encoding="utf-8"?>
<!-- Generator: Adobe Illustrator 22.1.0, SVG Export Plug-In . SVG Version: 6.00 Build 0)  -->
<svg version="1.1" xmlns="http://www.w3.org/2000/svg" xmlns:xlink="http://www.w3.org/1999/xlink" x="0px" y="0px"
	 viewBox="0 0 841.9 595.3" style="enable-background:new 0 0 841.9 595.3;" xml:space="preserve">
<style type="text/css">
	.st0{display:none;}
	.st1{fill:#FFFFFF;}
	.st2{fill:#F46544;}
	.st3{fill:none;}
	.st4{font-family:'Royana-Regular';}
	.st5{font-size:20px;}
	.st6{font-family:'MyriadPro-Regular';}
</style>
<g id="Слой_1" class="st0">
</g>
<g id="Слой_3">
	<circle cx="404.2" cy="294.2" r="283.8"/>
</g>
<g id="Слой_2">
	<g>
		<g>
			<path class="st1" d="M238.2,186.3c39.3,0.1,89.4-1.6,113.7,35.8c8.4,12.9,15,25.8,19.4,40.6c3,10,4.1,20.2,5.2,30.5
				c0.9,8.8-0.5,16.9-3.1,25.4c-3.6,11.7-9.4,21.6-17.4,30.7c-7.7,8.8-16,17.5-28,19.7c-3.2,0.6-1.8,5.4,1.3,4.8
				c10.3-1.9,18.3-8.3,25.4-15.7c7.8-8.2,14.9-16.9,19.5-27.4c3.9-8.8,7.1-18.8,7.7-28.5c0.5-9.3-1.1-19.5-2.8-28.6
				c-1.6-9.1-4.4-18.2-7.8-26.7c-3-7.6-7.5-14.4-11.6-21.4c-10.5-17.7-25.3-30-44.9-36.6c-24.5-8.3-51.1-7.5-76.6-7.6
				C235,181.3,235,186.3,238.2,186.3L238.2,186.3z"/>
		</g>
	</g>
	<g>
		<g>
			<path class="st1" d="M383.4,239.1c16.5,15.2,26.1,36.5,26.5,59c0.1,5.8,8.1,6.6,9.8,1.3c3.3-9.8,7.9-19.1,13.7-27.6
				c5.1-7.4,12.2-16.3,22.1-15.7c-1.7-1.7-3.3-3.3-5-5c-1,12.2-1.9,24.4-0.4,36.6c1.6,12,6.4,22.2,11.6,33
				c4.5,9.2,9.2,17.7,16.5,25.1c7.7,7.9,16.7,14.3,25.6,20.9c5.2,3.8,10.2-4.8,5-8.6C501,352,493,346.2,486,339.2
				c-6.9-6.9-11.3-14.9-15.5-23.6c-5-10.2-9.6-19.9-10.7-31.3c-1.1-11-0.2-22.2,0.7-33.2c0.2-2.8-2.5-4.9-5-5
				c-11.9-0.7-21.1,7.7-27.8,16.5c-7.8,10.3-13.6,21.9-17.7,34.1c3.3,0.4,6.5,0.9,9.8,1.3c-0.4-25-11-49.1-29.4-66
				C385.7,227.6,378.6,234.7,383.4,239.1L383.4,239.1z"/>
		</g>
	</g>
	<g>
		<g>
			<path class="st1" d="M369.4,272.2c-20.2-23-40.7-51.8-73.4-56.3c-14-1.9-30.2-1.6-43.4,3.9c-15.2,6.3-25.3,17.6-35.4,30.1
				c-11.4,14.1-21.7,29-30.9,44.5c-2.1,3.5,0.7,7.2,4.3,7.5c15.9,1.5,27.4,12.1,41.2,19.1c10.4,5.4,21.4,7.5,32.9,9.3
				c12.1,1.9,24.3,3.6,36.5,2.2c15.3-1.8,30.5-5.9,44.5-12.4c14.7-6.8,30.4-20,28.6-37.9c-0.6-6.3-10.6-6.4-10,0
				c1.5,15.3-13.4,24.8-25.7,30.2c-12.9,5.6-27.3,9.4-41.3,10.5c-11.3,0.9-22.8-1-33.9-2.9c-5.5-0.9-11-2-16.4-3.4
				c-4.9-1.3-9.2-3.6-13.7-6c-7.2-3.8-13.6-8.8-20.8-12.6c-6.9-3.6-14.2-5.4-21.9-6.1c1.4,2.5,2.9,5,4.3,7.5
				c9.5-16.1,20.2-31.6,32.2-46c6.2-7.4,12.2-14.9,20.5-20c7.8-4.9,16.2-7.5,25.4-8c8.3-0.5,16.8-0.8,25.1,0.9
				c8.9,1.8,16.7,6,24.1,11.2c15.7,11.2,27.5,27.3,40.2,41.7C366.6,284.1,373.6,277,369.4,272.2L369.4,272.2z"/>
		</g>
	</g>
	<g>
		<g>
			<path class="st1" d="M502.2,157.5c-6.7,20.1-12.9,39.9-15.2,61.1c-2.1,19.7-2.5,39.7-1.5,59.5c0.4,8.7,0.9,17.5,5.1,25.3
				c5.2,9.9,15.2,17.8,26,20.7c22.6,5.9,49.5-9,62-27.5c5.4-8.1,7-21.9,2-30.7c-4.6-8.1-18.6-12.1-26.6-7.1c-5.4,3.5-0.4,12.1,5,8.6
				c2.6-1.7,6.4-0.6,9.1,0.6c4,1.8,4.7,4.7,5,8.9c0.2,3.3,0.4,7.4-0.8,10.6c-1.6,4.1-5,7.8-8.1,10.9c-13.9,14.1-39,23.8-56.3,10.3
				c-13.5-10.5-12.5-27.3-12.8-42.8c-0.3-16.3,0.2-32.6,2.1-48.7c2.2-19.7,8.5-38.3,14.7-57.1C513.9,154,504.2,151.4,502.2,157.5
				L502.2,157.5z"/>
		</g>
	</g>
	<g>
		<g>
			<path class="st1" d="M494.3,232.1c7.3-15.4,22.3-27.1,36.4-36c17.3-10.9,36.8-18.2,57.2-19.9c3.2-0.3,3.2-5.3,0-5
				c-21.3,1.7-41.7,9.1-59.7,20.5c-14.7,9.3-30.4,21.7-38.1,37.8C488.6,232.5,493,235,494.3,232.1L494.3,232.1z"/>
		</g>
	</g>
	<g>
		<path class="st2" d="M506.4,263.8c7.6-14.6,21.6-14.2,41.9,1.2"/>
	</g>
	<rect x="386.9" y="404.3" class="st3" width="193.9" height="154"/>
	<text transform="matrix(1 0 0 1 386.9296 416.8037)" class="st1 st4 st5">GROUP</text>
	<text transform="matrix(1 0 0 1 386.5923 394.0859)" class="st6 st5">УAловите свое</text>
</g>
</svg>
