<?xml version="1.0" encoding="utf-8"?>
<!-- Generator: Adobe Illustrator 23.0.1, SVG Export Plug-In . SVG Version: 6.00 Build 0)  -->
<svg version="1.1" id="Layer_1" xmlns="http://www.w3.org/2000/svg" xmlns:xlink="http://www.w3.org/1999/xlink" x="0px" y="0px"
	 viewBox="0 0 307.1 97.2" style="enable-background:new 0 0 307.1 97.2;" xml:space="preserve">
<style type="text/css">
	.st0{fill-rule:evenodd;clip-rule:evenodd;fill:#FFFFFF;}
	.st1{fill-rule:evenodd;clip-rule:evenodd;fill:#FFFFFF;}
    .st2{fill-rule:evenodd;clip-rule:evenodd;fill:#FFFFFF;}
</style>
<title>муравей надпись</title>
<path class="st0" d="M64.9,46c0.3-2,1.8-6.1,3.5-10.7C72,25.9,77,13.9,77,11.1c0-0.9-0.2-1.7-0.7-2.5h-0.1c0.1,0.4,0.1,0.8,0.1,1.2
	c0,2.2-2.9,9.7-6,17.7c-0.9,2.2-1.8,4.6-2.6,6.8c-2,5.2-3.2,8.8-3.4,10.5s-0.2,3.4,0.3,4l0.1,0.1h0.1C64.7,47.9,64.7,47,64.9,46
	L64.9,46z M65.7,33.8c-1.5,3.5-2.6,7-3.5,10.7c-0.5,3.2,0.1,5.1,1.7,5.1c0.6,0,1.1,0.5,1.1,1c0,0,0,0,0,0c0,0.6-0.5,1-1.1,1
	c-3.7,0-6.2-2.4-7.2-5.8c-1.2-4.2,0.3-7.8,2-12h-2C50,43.3,44.5,51.6,39.2,51.6c-1,0-2-0.3-2.9-0.8v0c0.5,0.1,1,0.2,1.6,0.2
	c2.5,0,5.1-1.6,8.2-4.9c3.2-3.6,6.1-7.4,8.8-11.4l1-1.4h3.2l0.3-0.9h-5.4c-6.7,9.5-12.2,17.7-17.5,17.7c-4.3,0-6.5-4.8-4.9-4.8
	c0.2,0,0.4,0.3,0.6,0.5c0.3,0.4,0.8,0.6,1.3,0.6h0.1c4.5-0.2,8.8-7.1,13.6-13.5l0.6-0.8c-1.5-0.6-2.5-1.9-2.7-3.5
	c0-0.4,0.3-0.7,0.7-0.8c-0.4,0-0.3-0.1,5.2-0.1c6.1-8.4,12.7-17.2,16.7-21.9c0.3-0.3,0.8-0.4,1.2-0.4c2-0.3,5.3,0.6,5.3,4.2
	C74.3,12.3,69.3,24.4,65.7,33.8L65.7,33.8z M257.4,49.9c-1.2,0.6-2.6,1-4,1c-0.7,0-1.4-0.1-2-0.4c1,0.6,2.1,0.9,3.3,1
	c1.8-0.1,3.6-0.7,5.1-1.8c4.6-3.1,8.4-9.6,9.8-14.9c0.8-3.3,0.9-6.4-0.3-8.6h-0.1c0.7,2.5,0.4,5.8-0.8,9.4
	C266.6,40.7,262.3,47.3,257.4,49.9L257.4,49.9z M260.4,25.9c-0.1-0.6-0.5-1-1.1-1c-1.6,0-8.4,9.4-12.2,16.6
	c-4.2,9.1-9.3,20-9.3,22.8c0,0.8,0.1,0.8,0.1,1.2c0,0.6-0.7,0.8-1.3,0.8c-2.1,0-5.2-1.2-5.2-3.8c0-1.8,1.5-5.9,3.7-10.9
	c-0.9-0.1-1.8-0.3-2.6-0.8v-0.1c0.5,0.2,1.1,0.2,1.6,0.2c0.4,0,0.9-0.1,1.3-0.2c3.5-8,8.3-18.1,10.9-25c0.3-0.7-0.2-1.7,1.4-1.7
	s4.9,2.1,4.9,4.3c-0.1,0.6-0.3,1.3-0.6,1.9c3.3-4.9,6.5-8.5,8.8-8.5c8,0,8.1,8.8,4.3,16.6c-3.2,6.6-8.3,13.6-16.3,11.4
	c-0.6-0.2-1.3-0.4-1.8-0.8c-3.4,7.4-6.5,14.6-6.5,16.8c0,0.8,0.1,0.8,0.1,1.2c0,0.6-0.7,0.8-1.3,0.8c-1.2,0-2.3-0.3-3.3-0.9l0,0
	c0.6,0.2,1.3,0.3,2,0.3c1.1,0,1.9-0.6,1.9-1.5c0-0.4-0.1-0.7-0.1-1.2c0-2,3-9.1,6.3-16.2c-0.4-0.4-0.6-0.9-0.7-1.5c0-0.6,0.4-1,1-1
	c0,0,0.1,0,0.1,0c0.6,0,1,0.4,1,1c0,0.4,0.7,0.8,1.4,0.8c3.1,0,10.9-14.3,11.5-20.1c-4.3,4.6-8,9.9-10.7,15.6l-1.1,2.5
	c-0.4-0.1-0.8-0.2-1.1-0.1c0.5-1.2,1-2.3,1.6-3.5c2-3.7,4.3-7.3,6.8-10.7C258.3,27.7,259.8,26.3,260.4,25.9z M223.7,34.9
	c-1.8,4-3.8,8.5-3.8,10.4c0,0.4,0.1,0.7,0.4,0.9c-0.4,0.3-0.8,0.4-1.2,0.5c-0.8,0-1.2-0.7-1.2-1.5c0-3.8,7-16.3,7-19.3
	c0-2.2-2.4-4.3-4.9-4.3c-1.6,0-1.1,1-1.4,1.7c-2.6,5.8-4.7,10.2-6,13.7c-1,0.3-2.1,0.4-3.2,0.5c-1.4,3.6-3.5,6.8-6.1,9.6
	c-2.6,2.6-5.4,4-7.9,4c-0.6,0-1.1-0.1-1.6-0.3l0,0c0.9,0.5,1.9,0.8,3,0.9c4.9,0,10.5-5.6,13.6-13.5c0.7-0.1,1.4-0.2,2.1-0.5
	c-0.7,1.6-1.1,3.4-1.2,5.2c0,3.6,3.5,7.2,7,7.2c1.9,0,4.8-3,7.5-7.3v0.1c0,0.9,0.2,1.8,0.6,2.6c-0.9,1.2-1.8,2.3-2.8,3.3
	c-1.5,1.4-2.8,2.2-3.9,2.2c-0.6,0-1.1-0.1-1.6-0.3l0,0c0.9,0.5,1.9,0.8,2.9,0.8c1.6,0,3.8-2,6-5.1c1.2,2.1,3.4,3.4,5.8,3.6
	c4.5,0,8.9-8.2,12.7-16.9c0.6-1.3-1.2-2-2.1,0c-2.5,5.8-5.9,10.7-8.1,12.7c0.8-4.6,7-15.7,7-18.4c0-0.6-0.2-1.3-0.5-1.8h-0.1
	c0,0.2,0,0.4,0,0.5c0,1.5-1.5,4.9-3.3,8.9s-3.8,8.5-3.8,10.4c0,0.3,0.1,0.6,0.3,0.8c-0.3,0.3-0.7,0.5-1.1,0.5
	c-0.8,0-1.2-0.7-1.2-1.5c0-3.8,7-16.3,7-19.3c0-2.2-2.4-4.3-4.9-4.3c-1.6,0-1.1,1-1.4,1.7c-1.3,2.9-8.1,19.3-12.6,22.8
	c0.7-4.4,7-15.8,7-18.7c0-0.7-0.2-1.3-0.6-1.9h-0.1c0,0.2,0,0.4,0,0.6c0,1.5-1.5,4.9-3.3,8.9L223.7,34.9z M204.4,26.4
	c-0.4,0-1.6,0.5-3.4,3c-1.5,2.2-2.8,4.6-3.8,7.2c-0.9,2-1.6,4.2-2,6.3c-0.3,1.8-0.1,3.1,0.3,3.6c0,0,0.1,0,0.1,0
	c-0.8,0.5-1.5,0.6-2,0.2c-3-3,5.1-21.1,9.5-21.1C203.6,25.6,204.1,25.9,204.4,26.4L204.4,26.4z M195.7,46.5
	c-0.4-5,5.3-17.3,9.2-19.2c0.7,2,0.4,5-1.4,6.3c-0.3,0.2-0.6,0.3-0.9,0.5c-0.7,0.2-1.5,0.3-2.2,0.1c0.3,1.5,1.6,2.5,3.1,2.5v0.1
	C201.8,39.8,198.2,44.9,195.7,46.5z M212.3,31.8c1.9-1.1,3.6-2.3,5.2-3.8c0,4.8-2.1,7.8-9.8,8.6c-3.1,7.9-8.8,13.5-13.6,13.5
	c-1.9,0-7.6-2.2-7.6-8.2c0.2-3.4,1-6.7,2.4-9.8c2.8-6.3,8.1-10.9,11.3-10.4c6.5,1,9.4,4.2,9.5,11.1c0.7-0.2,1.4-0.4,2.1-0.8
	c0-1.2-0.2-2.5-0.6-3.6h0.1C211.8,29.5,212.1,30.6,212.3,31.8L212.3,31.8z M180.4,20.8l-0.1,0.1c-1.8,0.9-3.2,4.4-3.2,4.9
	c0,0.5,0.3,0.9,0.6,1.2c0.6-2.1,1.8-4,3.5-5.4c0.4-0.6,0.2-1.4-0.4-1.8c0,0,0,0,0,0C180.8,20.3,180.6,20.5,180.4,20.8L180.4,20.8z
	 M184.6,32.3c-0.1,0.4-0.5,1.3-1.3,2.9c-1.4,3-3.6,8.1-3.6,10.1c0,0.3,0.1,0.6,0.3,0.8c-0.3,0.3-0.7,0.5-1.1,0.5
	c-0.6,0-1.2-0.5-1.2-1.5c0-3.1,4.6-12,4.9-13.2c0.2-0.6,0.3-2.5-1.1-2.5s-6.4-1.1-6.4-3.7c0.6-2.1,1.8-4,3.5-5.4
	c1-1.6-1.8-3.1-5.6-3.1c-0.8,0-1.6,0.4-2.1,0.9c0.5-1.4,0.8-2.9,0.8-4.4c0-1.2-0.3-2.4-0.8-3.5h-0.1c0.9,3.6-0.8,8.4-2.8,11.4
	s-4.4,4.8-6.6,4.8h-0.1c0.4,0.4,0.9,0.6,1.4,0.6c2.2,0,4.5-2.1,6.3-4.9c0,0.1,0,0.2,0,0.2c0.1,1.4,0.6,2.8,1.5,3.9
	c-0.4,2.4-1,4.7-2,6.9c-0.6,1.4,1.5,1.4,2.1,0c0.3-0.6,1.1-2.6,2.1-4.5c0.8,0.7,1.7,1.3,2.6,1.8c-1.2,2.8-4.2,8.7-4.2,12.3
	s3.5,7.3,7,7.3c4.2,0,8.4-7,12.7-16.9c0.6-1.3-1.2-2-2.1,0c-2.5,5.8-5.9,10.7-8.1,12.7c0.7-3.6,4.6-11.2,4.9-12.4
	c0.1-0.5,0.3-1.9-0.5-2.4C184.9,31.4,184.8,31.8,184.6,32.3L184.6,32.3z M184.3,48.4c-1,2-2.1,3.2-3.6,3.2c-1,0-1.9-0.3-2.8-0.7
	c0,0,0-0.1,0-0.1c0.5,0.1,1,0.2,1.5,0.2c1.6,0,3.2-0.8,4.8-2.6L184.3,48.4L184.3,48.4z M163.6,10.5c-0.2-0.5-0.5-0.9-0.9-0.9
	c-8.6,0-18.9,18-18.9,28.5c0,4,1.4,7.5,3.7,7.5c1.5,0,3.5-1.7,5.5-5.4l0.6-1.2c0.2-0.4,0.4-0.9,0.6-1.3l0.8-1.7
	c0.8-1.7,1.5-3.5,2.2-5.4l0.2-0.5c0.2-0.4,0-1.1,0.7-1.6c1.2-0.8,3.9-0.1,3.9,4c0,1.2-1,3.7-2.5,7c-1.5,3.6-3.1,7.3-4.6,10.9
	c-2.6,6.4-4.8,12-4.8,13.7c0,0.4,0.1,0.8,0.1,1.2c0,0.6-0.7,0.8-1.3,0.8c-2.4-0.1-4.4-2-4.5-4.5c0-1.5,1.5-5.3,3.6-10.3
	c-1.2-0.1-2.4-0.5-3.4-1v-0.1c1.2,0.3,2.4,0.5,3.6,0.5l0.8-1.7c-0.5,0.5-1.2,0.8-1.9,0.8c-7.7,0-10.9-5.4-10.9-12.6
	c0-13.2,11.1-32.1,25.8-32.1c4.2,0,7,2.2,7,6.7c0,5.8-4.8,13.4-8.9,13.4c-1.3,0-3.4-2.4-3.4-3.8c0-0.4,0.2-0.8,0.6-0.8
	c3.7,0,6.7-5.3,6.7-8.2c0-0.4,0-0.9-0.1-1.3c-8.2,1.9-17.4,18.5-17.4,28.3c0,1.4,0.2,2.7,0.5,4h-0.1c-0.8-1.7-1.2-3.5-1.1-5.3
	c0-4.9,2.4-11.9,6.1-17.8S160,10.7,163.6,10.5L163.6,10.5z M161.6,39.7c1.7-4,2.4-5.9,2.4-7c0-0.6-0.1-1.2-0.2-1.7h0.1
	c0.5,0.9,0.8,1.9,0.8,3c0,1.2-1.1,3.7-2.5,7c-1.5,3.5-3.1,7.3-4.6,10.9c-2.6,6.4-4.8,12-4.8,13.8c0,0.4,0.1,0.8,0.1,1.2
	c0,0.6-0.7,0.8-1.3,0.8c-0.8,0-1.5-0.3-2.2-0.7v-0.1c0.3,0.1,0.6,0.1,0.9,0.1c1.5,0,2-0.8,2-1.5c0-0.4-0.1-0.7-0.1-1.2
	c0-1.9,3.3-10,4.7-13.5c0.6-1.5,1.3-3.1,2-4.6C159.8,44.1,160.7,41.9,161.6,39.7L161.6,39.7z M116.1,16.4c0.3,0.1,0.6,0.3,0.8,0.4
	c0.2-0.5,0.3-1.1,0.3-1.6c0-0.9-0.2-1.7-0.7-2.5h-0.1C116.7,13.9,116.6,15.2,116.1,16.4L116.1,16.4z M115,21.5
	c-1,2.3-2.4,5.1-3.8,8.2c-2.8,6.3-6.1,12.8-6.5,16.2c2.2-1.6,5.7-5.8,8.8-12.9c0.9-2,2.7-1.3,2.1,0c-4.9,11.4-8.8,16.9-13.4,16.9
	c-2.5,0-4.4-2-5.2-4.4c-2,3.6-3.9,5.9-5.5,5.9c-1,0-2-0.3-2.9-0.8v-0.1c0.5,0.1,1,0.2,1.5,0.2c2.5,0,5-3.2,6.4-5
	c0.1-0.2,0.2-0.3,0.3-0.5c-0.3-0.9-0.4-1.8-0.4-2.7c0-2.6,1-6,5.8-16.5c1-2.1,1.9-4,3-6.3c-0.9,0.1-1.5,0.1-1.8,0.1
	c-1.5-0.1-2.7-1.4-2.7-2.9c0-0.4,0.3-0.7,0.6-0.8h5.5l2.4-5.2c0.1-0.6-0.2-1.7,1.4-1.7c2.1,0,3.9,1.8,3.8,3.9c0,0.1,0,0.2,0,0.2
	c-0.1,1-0.3,1.9-0.7,2.8c1.5,0.3,2.5,1.6,2.3,3.1c-0.1,0.5-0.5,0.8-1,0.8c-0.1,0-0.2-0.1-0.3-0.1c-0.8-0.2-1.7-0.3-2.6-0.3
	c-1,2.3-2.4,5-3.8,8.2c-3,6.7-6.5,13.6-6.5,16.8c0,0.8,0.4,1.5,1.2,1.5c0.4,0,0.8-0.2,1.2-0.5c-0.3-0.1-0.4-0.5-0.4-0.8
	c0-2.4,2.4-7.5,4.7-12.7l1.7-3.8c1.2-2.6,2.4-5.2,3.6-7.8c0.6,0,1.3,0.1,1.9,0.2l0.1,0.1c0.2,0,0.3,0.1,0.4,0.1
	c0.8,0,1.6-0.6,1.6-1.5c0-0.3,0-0.5,0-0.8h0.1c0.4,0.6,0.6,1.4,0.6,2.1c0,0.5-0.6,0.8-1,0.8c-0.1,0-0.2,0-0.3-0.1
	C116.7,21.7,115.9,21.6,115,21.5L115,21.5z M109,48.6L109,48.6c-1.7,1.5-4,2.7-6.4,2.1v0.1c0.7,0.5,1.6,0.7,2.5,0.7
	C106.8,51.5,108,50.5,109,48.6L109,48.6z M94.4,34.9c1.8-3.9,3.3-7.4,3.3-8.9c0-0.2,0-0.3,0-0.5h0.1c0.3,0.5,0.5,1.1,0.6,1.8
	c0,2.9-6.3,14.3-7,18.7c2.3-1.7,5.4-6.6,8.2-12.9c0.9-2,2.7-1.3,2.1,0C97.2,43,92,50,88.9,50c-3.5,0-7-3.7-7-7.2
	c0-2.1,1-5.1,2.1-8.1c-3,4.6-6.2,9.9-7.6,13.5c-0.2,0.5-0.3,1-0.3,1.5c0,0.8,0.6,1.9-1.2,1.9c-1,0-2-0.3-2.9-0.8v0
	c1,0.3,2.5,0.5,3.2-0.3c0.3-0.5,0.4-1,0.3-1.6c-0.1-0.6-0.1-1.2,0.1-1.7c2.1-4.6,4.6-8.9,7.4-13.1c1.1-1.7,2.1-3.1,3.1-4.4
	c0.8-1.8,1.5-3.4,1.9-4.6c-1.9,0-11.4,14.6-14.4,21.7c-0.2,0.5-0.2,1-0.2,1.5c0,0.8,0.6,1.9-1.2,1.9c-2,0-5.5-1.8-5.5-4.5
	s4.7-12.5,9.2-22.4c0.3-0.7-0.2-1.7,1.4-1.7c2.4,0,4.9,2.1,4.9,4.3c0,1.1-1.1,3.6-2.5,6.7c3.8-5.9,7.9-10.8,11.1-10.8
	c2.4,0,4.9,1.9,4.9,4.1c0,3-7,15.5-7,19.3c0,1,0.3,1.5,1.2,1.5c0.4,0,0.8-0.2,1.2-0.4c-0.2,0-0.3-0.2-0.3-0.9
	C90.6,43.4,92.6,38.9,94.4,34.9L94.4,34.9z M63.7,21.9l-3.8,5.4h1.4l0.7-1l-0.5,1.4h-4.2l9.2-13.2L63.7,21.9L63.7,21.9z M65.3,52.6
	c-0.8,0-1.5-0.1-2.2-0.3v0c1.1,0.6,2.3,0.9,3.5,0.9c0.6,0,1.1-0.4,1.1-1c0-0.4-0.3-0.8-0.6-1C66.9,52,66.2,52.6,65.3,52.6z"/>
<rect class="st2" x="9.9" y="88.6" width="286.2" height="1.5"/>
<path class="st1" d="M11.9,82.8v-3.6h2.8c1,0,1.8,0.8,1.8,1.8c0,1-0.8,1.8-1.8,1.8L11.9,82.8z M14.7,84.4c0.9,0,1.9-0.3,2.5-1
	c1.3-1.3,1.3-3.4,0-4.8c0,0,0,0,0,0c-0.7-0.7-1.6-1-2.5-1h-2.8v-2.6h5.5v-1.6h-7.3v11L14.7,84.4z M26.1,73.4h-1.8l3.9,7.6l-0.4,0.8
	c-0.2,0.4-0.4,0.7-0.8,1c-0.4,0.2-0.8,0.3-1.2,0.3c-0.3,0-0.6,0-0.9-0.2v1.4h0.1c0.1,0.1,0.3,0.1,0.4,0.1c0.2,0,0.4,0.1,0.6,0.1
	c0.8,0,1.5-0.2,2.1-0.7c0.6-0.6,1.2-1.3,1.5-2.2l3.9-8.4h-1.8L29.1,79l-3-5.8V73.4z M38.4,82.8v4h1.7v-2.5h7.6v2.4h1.7v-4h-1.3v-9.4
	h-7.2v3.3c0,0.8-0.1,1.6-0.2,2.3c-0.1,0.6-0.3,1.2-0.5,1.7c-0.2,0.4-0.4,0.8-0.6,1.2c-0.2,0.3-0.4,0.6-0.5,0.7
	c-0.1,0.1-0.1,0.1-0.2,0.2L38.4,82.8z M42.7,76.7v-1.8h3.7v7.9h-5.6l0.2-0.2c0.2-0.2,0.3-0.4,0.5-0.7c0.2-0.4,0.4-0.8,0.5-1.2
	c0.2-0.6,0.4-1.2,0.5-1.8C42.6,78.2,42.7,77.4,42.7,76.7L42.7,76.7z M56.2,84.4h1.7v-11h-1.7V84.4z M70.4,84.4
	c0.9,0,1.8-0.3,2.5-0.9c0.6-0.6,1-1.4,1-2.3c0-0.3-0.1-0.7-0.2-1c-0.1-0.3-0.2-0.5-0.4-0.8c-0.1-0.2-0.3-0.4-0.5-0.5l-0.4-0.3
	l-0.2-0.1l0.3-0.2c0.2-0.2,0.4-0.5,0.5-0.8c0.2-0.4,0.3-0.8,0.3-1.2c0-0.8-0.4-1.5-1-2c-0.6-0.6-1.4-0.9-2.3-0.9h-4.4v11L70.4,84.4z
	 M67.4,82.9v-3.6h3c1-0.1,1.9,0.7,1.9,1.7c0.1,1-0.7,1.9-1.7,1.9c-0.1,0-0.2,0-0.3,0L67.4,82.9z M70.2,74.9c0.8,0,1.5,0.6,1.5,1.4
	c0,0,0,0.1,0,0.1c0,0.4-0.1,0.8-0.4,1.1c-0.3,0.3-0.7,0.4-1.1,0.4h-2.7v-3H70.2z M82.9,82.9v-3.5h4.8v-1.6h-4.8v-2.9h6.1v-1.6h-7.8
	v11h8v-1.5L82.9,82.9z M104.8,73.4h-7.5v3.3c0,1.1,0,2.1-0.1,3.2c0,0.6-0.2,1.3-0.4,1.9c-0.1,0.3-0.3,0.6-0.6,0.9
	c-0.2,0.2-0.5,0.2-0.8,0.2c-0.3,0-0.6-0.1-0.9-0.2v1.6h0.2c0.2,0.1,0.3,0.1,0.5,0.1c0.2,0,0.4,0.1,0.6,0.1c0.5,0,0.9-0.1,1.4-0.3
	c0.4-0.3,0.8-0.7,1-1.2c0.4-0.8,0.6-1.6,0.7-2.4c0.2-1.3,0.2-2.7,0.2-4v-1.6h4v9.5h1.7L104.8,73.4L104.8,73.4z M117,84.4
	c1,0,1.9-0.3,2.7-1c1.4-1.4,1.4-3.6,0-5c0,0,0,0,0,0c-0.7-0.7-1.7-1-2.7-1h-2.7v-4.1h-1.7v11L117,84.4z M114.3,82.8v-4h2.7
	c1.1,0,2,0.8,2,1.9c0,0,0,0.1,0,0.1c0,1.1-0.8,2-1.9,2c0,0-0.1,0-0.1,0L114.3,82.8z M136.8,73.4h-1.7V78h-5.4v-4.7h-1.8v11h1.7v-4.8
	h5.4v4.8h1.7L136.8,73.4L136.8,73.4z M143.3,84.4h1.8l1.2-2.9h4.9l1.2,2.9h1.8l-4.6-11h-1.7L143.3,84.4z M148.8,75.3l1.8,4.6H147
	L148.8,75.3z M178,73.3h-1.7v11h1.7v-3.2l1.7-1.9l3.6,5.2h2.1l-4.6-6.5l4.3-4.6H183l-5,5.4L178,73.3L178,73.3z M193,78.8
	c0-2.2,1.9-4,4.1-4c2.2,0,4,1.9,4,4.1s-1.9,4-4.1,4c-1.1,0-2.1-0.4-2.8-1.2C193.4,80.9,193,79.9,193,78.8z M191.3,78.8
	c0,1.5,0.6,3,1.7,4c2.3,2.2,6,2.2,8.3,0c2.2-2.2,2.2-5.8,0-8c0,0,0,0,0,0c-2.3-2.2-6-2.2-8.3,0C191.9,75.8,191.3,77.2,191.3,78.8
	L191.3,78.8z M215.9,78.6l-4.3-5.4h-1.5v11h1.8v-8l4,5l4-5v8h1.7v-11h-1.5L215.9,78.6L215.9,78.6z M238.3,73.3h-8.9v11h1.7v-9.4h5.4
	v9.5h1.7v-11V73.3z M244.9,84.3h1.8l1.2-2.8h4.9l1.2,2.9h1.8l-4.6-11h-1.7l-4.6,11L244.9,84.3z M250.3,75.3l1.8,4.6h-3.6L250.3,75.3
	z M271.2,73.3h-1.7v4.7H264v-4.6h-1.7v11h1.7v-4.8h5.4v4.8h1.7V73.3L271.2,73.3z M279,84.3h1.7v-11H279V84.3z M296.3,73.3h-4.6
	c-0.9,0-1.9,0.3-2.5,1c-0.7,0.6-1,1.5-1,2.4c0,0.4,0.1,0.9,0.2,1.3c0.1,0.3,0.3,0.6,0.5,0.9c0.2,0.2,0.4,0.4,0.7,0.6
	c0.2,0.1,0.3,0.2,0.5,0.3l0.2,0.1l-2.5,4.4h1.9l2.4-4.3h2.5v4.3h1.7L296.3,73.3L296.3,73.3z M289.9,76.7c0-1,0.8-1.8,1.7-1.8
	c0,0,0,0,0.1,0h2.9v3.6h-2.9c-1,0-1.8-0.7-1.8-1.7C289.9,76.8,289.9,76.8,289.9,76.7z"/>
</svg>
